<svg width="151" height="127" viewBox="0 0 151 127" fill="none" xmlns="http://www.w3.org/2000/svg">
<path d="M80.48 14.432C77.5787 15.1147 75.1467 15.456 73.184 15.456C71.2213 15.456 69.344 15.328 67.552 15.072C64.9067 18.2293 62.5173 22.4533 60.384 27.744C58.2507 33.0347 56.6293 37.7707 55.52 41.952C54.496 46.1333 53.344 51.2533 52.064 57.312C45.5787 88.2027 39.0933 110.133 32.608 123.104C28.3413 124.384 23.0507 125.621 16.736 126.816C25.2693 112.224 32.1813 95.2853 37.472 76H10.976C4.23467 54.1547 0.736 32.8213 0.48 12H37.856C36.064 19.936 35.168 28.384 35.168 37.344C35.168 46.2187 36.6187 56.3733 39.52 67.808C40.1173 65.504 41.1413 61.4933 42.592 55.776C44.0427 49.9733 45.1093 45.8347 45.792 43.36C46.4747 40.8853 47.4987 37.3867 48.864 32.864C50.3147 28.3413 51.5947 24.9707 52.704 22.752C53.8987 20.448 55.3493 17.888 57.056 15.072C60.128 10.0373 64.1813 6.624 69.216 4.83199C70.6667 4.40533 73.6107 3.97866 78.048 3.55199C82.4853 3.04 85.6853 2.144 87.648 0.863998C85.344 6.15466 82.9547 10.6773 80.48 14.432ZM124.019 19.68C120.606 19.168 116.936 18.912 113.011 18.912C109.171 18.912 105.416 19.168 101.747 19.68C104.051 23.6053 106.782 26.8053 109.939 29.28C113.096 31.7547 117.064 34.2293 121.843 36.704C126.707 39.0933 130.632 41.312 133.619 43.36C136.691 45.408 140.062 48.7787 143.731 53.472C147.4 58.1653 149.704 63.072 150.643 68.192C146.547 73.4827 141.128 78.1333 134.387 82.144C127.646 86.24 120.734 88.9707 113.651 90.336C108.872 89.9093 102.814 88.544 95.475 86.24C88.2217 84.0213 82.7603 82.912 79.091 82.912C75.4217 82.912 71.7523 84.064 68.083 86.368C69.619 82.016 72.1363 76.5547 75.635 69.984H76.659C82.1203 69.984 87.2403 70.8373 92.019 72.544C96.883 74.2507 101.278 75.9573 105.203 77.664C109.214 79.3707 112.414 80.224 114.803 80.224C117.278 80.224 119.07 80.0533 120.179 79.712C120.179 74.08 118.43 69.4293 114.931 65.76C113.054 63.7973 111.432 62.304 110.067 61.28C108.787 60.1707 106.782 58.6773 104.051 56.8L101.875 55.264C96.0723 51.2533 91.2937 47.2 87.539 43.104C83.7843 38.9227 81.0537 33.8027 79.347 27.744C82.0777 21.6853 84.7657 16.4373 87.411 12C95.5177 10.0373 103.923 9.056 112.627 9.056H118.259C125.598 9.056 134.003 10.08 143.475 12.128C142.11 17.76 140.446 22.8373 138.483 27.36C131.315 27.872 125.768 28.128 121.843 28.128C122.611 26.1653 123.336 23.3493 124.019 19.68Z" fill="white"/>
</svg>
